<svg width="37" height="38" viewBox="0 0 37 38" fill="none" xmlns="http://www.w3.org/2000/svg">
<path d="M28.7051 10.663C28.5757 10.6445 28.4464 10.6445 28.317 10.663C25.4526 10.5706 23.1796 8.22361 23.1796 5.34073C23.1796 2.4024 25.5635 0 28.5203 0C31.4586 0 33.861 2.38392 33.861 5.34073C33.8425 8.22361 31.5695 10.5706 28.7051 10.663Z" fill="currentColor"/>
<path d="M34.7342 23.4704C32.6645 24.8564 29.7631 25.3738 27.0835 25.0227C27.7857 23.5073 28.1553 21.8257 28.1738 20.0516C28.1738 18.2036 27.7673 16.448 26.9911 14.9141C29.7261 14.5445 32.6275 15.062 34.7157 16.448C37.6356 18.3699 37.6356 21.53 34.7342 23.4704Z" fill="currentColor"/>
<path d="M8.21264 10.663C8.342 10.6445 8.47136 10.6445 8.60072 10.663C11.4651 10.5706 13.7382 8.22361 13.7382 5.34073C13.7382 2.38392 11.3542 0 8.39744 0C5.45912 0 3.0752 2.38392 3.0752 5.34073C3.0752 8.22361 5.34824 10.5706 8.21264 10.663Z" fill="currentColor"/>
<path d="M8.41765 20.0519C8.41765 21.8445 8.80573 23.5447 9.50797 25.0785C6.90229 25.3557 4.18573 24.8013 2.18988 23.4892C-0.729961 21.5488 -0.729961 18.3887 2.18988 16.4483C4.16725 15.1178 6.95773 14.5818 9.58189 14.8775C8.82421 16.4298 8.41765 18.1855 8.41765 20.0519Z" fill="currentColor"/>
<path d="M18.7104 25.6318C18.5626 25.6133 18.3963 25.6133 18.23 25.6318C14.8296 25.5209 12.113 22.7304 12.113 19.2932C12.1315 15.782 14.959 12.936 18.4887 12.936C21.9999 12.936 24.8458 15.782 24.8458 19.2932C24.8273 22.7304 22.1292 25.5209 18.7104 25.6318Z" fill="currentColor"/>
<path d="M12.7044 29.4583C9.91395 31.3248 9.91395 34.3925 12.7044 36.2405C15.883 38.3657 21.0944 38.3657 24.273 36.2405C27.0635 34.374 27.0635 31.3063 24.273 29.4583C21.1129 27.3331 15.9015 27.3331 12.7044 29.4583Z" fill="currentColor"/>
</svg>
