<svg width="44" height="44" viewBox="0 0 44 44" fill="none" xmlns="http://www.w3.org/2000/svg">
<path d="M43.0591 21.5296C43.0591 9.66677 33.3923 0 21.5296 0C9.66677 0 0 9.66677 0 21.5296C0 27.7731 2.69119 33.3923 6.95405 37.3322C6.95405 37.3538 6.95405 37.3538 6.93252 37.3753C7.14781 37.5906 7.40617 37.7628 7.62146 37.9566C7.75064 38.0643 7.85829 38.1719 7.98746 38.258C8.375 38.581 8.80559 38.8824 9.21465 39.1838C9.36536 39.2914 9.49453 39.3776 9.64524 39.4852C10.0543 39.7651 10.4849 40.0234 10.937 40.2603C11.0877 40.3464 11.26 40.454 11.4107 40.5402C11.8413 40.777 12.2934 40.9923 12.767 41.186C12.9393 41.2722 13.1115 41.3583 13.2837 41.4229C13.7574 41.6166 14.231 41.7889 14.7047 41.9396C14.8769 42.0042 15.0492 42.0687 15.2214 42.1118C15.7381 42.2625 16.2548 42.3917 16.7715 42.5209C16.9222 42.5639 17.0729 42.607 17.2452 42.6285C17.848 42.7577 18.4508 42.8438 19.0752 42.9084C19.1613 42.9084 19.2474 42.9299 19.3335 42.9515C20.0655 43.0161 20.7976 43.0591 21.5296 43.0591C22.2616 43.0591 22.9936 43.0161 23.704 42.9515C23.7902 42.9515 23.8763 42.9299 23.9624 42.9084C24.5868 42.8438 25.1896 42.7577 25.7924 42.6285C25.9431 42.607 26.0938 42.5424 26.2661 42.5209C26.7828 42.3917 27.321 42.284 27.8162 42.1118C27.9884 42.0472 28.1607 41.9826 28.3329 41.9396C28.8065 41.7673 29.3017 41.6166 29.7538 41.4229C29.9261 41.3583 30.0983 41.2722 30.2706 41.186C30.7227 40.9923 31.1748 40.777 31.6269 40.5402C31.7992 40.454 31.9499 40.3464 32.1006 40.2603C32.5312 40.0019 32.9618 39.7651 33.3923 39.4852C33.543 39.3991 33.6722 39.2914 33.8229 39.1838C34.2535 38.8824 34.6626 38.581 35.0501 38.258C35.1793 38.1504 35.2869 38.0427 35.4161 37.9566C35.6529 37.7628 35.8898 37.5691 36.1051 37.3753C36.1051 37.3538 36.1051 37.3538 36.0835 37.3322C40.3679 33.3923 43.0591 27.7731 43.0591 21.5296ZM32.1652 32.2297C26.3306 28.3114 16.7715 28.3114 10.894 32.2297C9.94665 32.8541 9.17159 33.5861 8.5257 34.3827C5.25321 31.0671 3.22943 26.5244 3.22943 21.5296C3.22943 11.4322 11.4322 3.22943 21.5296 3.22943C31.6269 3.22943 39.8297 11.4322 39.8297 21.5296C39.8297 26.5244 37.8059 31.0671 34.5334 34.3827C33.909 33.5861 33.1125 32.8541 32.1652 32.2297Z" fill="currentColor"/>
<path d="M21.5295 10.6134C17.0729 10.6134 13.4559 14.2304 13.4559 18.687C13.4559 23.0575 16.8791 26.6099 21.4219 26.7391H21.6156H21.7663H21.8094C26.1584 26.5884 29.5816 23.0575 29.6031 18.687C29.6031 14.2304 25.9861 10.6134 21.5295 10.6134Z" fill="currentColor"/>
</svg>
